<?xml version="1.0" encoding="utf-8"?>
<!-- Generator: Adobe Illustrator 16.0.0, SVG Export Plug-In . SVG Version: 6.00 Build 0)  -->
<!DOCTYPE svg PUBLIC "-//W3C//DTD SVG 1.1//EN" "http://www.w3.org/Graphics/SVG/1.1/DTD/svg11.dtd">
<svg version="1.1" xmlns="http://www.w3.org/2000/svg" xmlns:xlink="http://www.w3.org/1999/xlink" x="0px" y="0px" width="100px"
	 height="100px" viewBox="0 0 100 100" enable-background="new 0 0 100 100" xml:space="preserve">
<g id="outline" display="none">
	<polygon display="inline" fill="#FFFFFF" points="42.371,84.95 25.262,55.314 42.371,25.679 76.593,25.679 93.702,55.314 
		76.593,84.95 	"/>
	<line display="inline" fill="none" x1="41.604" y1="83.622" x2="78.465" y2="28.922"/>
	<line display="inline" fill="none" x1="55.689" y1="84.95" x2="92.551" y2="30.25"/>
	<line display="inline" fill="none" x1="41.604" y1="26.251" x2="78.465" y2="80.951"/>
	<line display="inline" fill="none" x1="56.197" y1="24.239" x2="93.059" y2="78.939"/>
	<line display="inline" fill="none" x1="44.14" y1="30.015" x2="81.001" y2="84.715"/>
</g>
<g id="Layer_3">
	<g>
		<polygon points="2.296,50 25.077,89.461 52.025,49.473 25.405,9.972 		"/>
		<polygon points="46.772,8.687 63.142,32.976 76.461,13.209 73.853,8.687 		"/>
		<polygon points="86.1,29.898 73.583,48.471 87.05,68.454 97.703,50 		"/>
		<polygon points="76.791,86.224 62.467,64.968 44.713,91.313 73.853,91.313 		"/>
	</g>
</g>
</svg>
